# xmcd CD database file
#
# Track frame offsets:
#	150
#	36041
#	57960
#	96170
#	121258
#	146287
#	168997
#
# Disc length: 2536 seconds
#
# Revision: 0
# Processed by: cddbd v1.5.2PL0 Copyright (c) Steve Scherf et al.
# Submitted via: CDex 1.51
#
DISCID=5409e607
DTITLE=Etienne Charles - Culture Shock
DYEAR=2006
DGENRE=Jazz
TTITLE0=Culture Shock
TTITLE1=Sunday
TTITLE2=Prayer For Lynette
TTITLE3=Ruth
TTITLE4=Lost In The Bronx
TTITLE5=Embraceable You
TTITLE6=Old School
EXTD=YEAR: 2006
EXTT0=
EXTT1=
EXTT2=
EXTT3=
EXTT4=
EXTT5=
EXTT6=
PLAYORDER=
